<svg width="46" height="46" viewBox="0 0 46 46" fill="none" xmlns="http://www.w3.org/2000/svg">
<g filter="url(#filter0_d_2103_245)">
<mask id="path-1-inside-1_2103_245" fill="white">
<path fill-rule="evenodd" clip-rule="evenodd" d="M4 38V19.1598H5.89438V18.8401H6.06926V18.4034H6.21512V18.2571H7.23518V18.4034H7.38069V18.6945H7.52654V19.1598H11.0825V18.6945H11.3741V18.9856H11.5197V19.1598H13.2689V18.9856H13.4433V18.6945H13.7349V19.1598H22.4208V17.5293H22.8581V19.1598H27.4347V18.8401H27.7263V18.9856H28.1921V19.1598H31.1365V18.8401H31.2824V18.5488H31.4282V18.257H32.448V18.4033H32.5939V18.6944H32.7397V18.9854H32.8854V19.1597H36.587V18.5487H36.8786V18.84H37.0241V19.1597H40.1138V13.1033H37.1699V13.5401H36.8786V13.249H36.7328V13.1033H33.7892V13.5401H33.4976V13.249H33.352V13.1033H28.1923V13.249H27.7266V13.3947H27.435V13.1034H24.6364V13.2491H24.1993V13.1034H13.1236V13.2491H12.9778V13.5402H12.8319V13.9768H12.6864V14.2975H12.54V14.5886H12.2486V14.2975H12.1027V13.8315H11.9569V13.5402H11.8113V13.2491H11.6655V13.1034H8.57609V13.6858H8.25512V13.3947H8.10961V13.1034H5.31154V13.2491H5.16568V13.6858H5.01983V13.9768H4.87432V14.2975H4.72858V14.7342H4.58273V15.0252H4.4371V15.3165H4.29136V15.7532H4V0H41.8914V20.762H39.0934V20.9075H38.5104V20.762H34.8087V20.9075H34.3716V20.762H29.2129V20.9075H28.6293V20.762H24.3447V20.9075H23.9076V20.762H18.8944V20.9075H18.7489V21.0532H18.6031V21.1988H18.4572V21.3443H18.3117V21.49H17.845V21.3443H17.6994V21.1988H17.5536V20.9076H17.4078V20.7621H11.6654V26.8184H17.2621V26.6729H17.4078V26.5272H17.5536V26.3523H17.6994V26.2068H17.845V25.9155H18.3117V26.0612H18.4572V26.3523H18.6031V26.5272H18.7489V26.6729H18.8944V26.8184H22.421V25.3336H23.9076V25.1879H24.1991V26.8184H26.9968V25.1879H27.4347V26.8184H36.8784V26.6729H37.3155V26.5272H37.6069V26.8183H41.3085V26.6728H41.8915V38H4ZM21.363 23.7405H23.5082V23.5948H23.654V22.5H23.5082V22.3544H21.363V23.7405V23.7405ZM21.5086 15.9364H23.7997V15.6453H23.9455V14.9871H23.7997V14.6961H21.5086V15.9364ZM12.7235 25.8776V21.6731H16.7871V21.9937H16.9326V22.1394H17.0785V22.2849H17.2244V22.4306H17.3699V22.5762H17.5157V22.7217H17.6616V22.8674H17.8071V23.0131H18.4953V22.8674H18.6411V22.7217H18.7866V22.5762H18.9324V22.285H19.0783V22.1396H19.2239V21.9938H19.3697V21.8476H19.5155V21.6732H23.4326V21.8476H23.8698V21.9938H24.0157V22.1396H24.1615V22.285H24.3072V22.5762H24.453V23.5195H24.3072V23.8105H24.1615V23.9855H24.0157V24.1309H23.7243V24.2767H22.9662V24.4223H21.3635V25.8779H19.5156V25.7324H19.3698V25.5867H19.224V25.441H19.0784V25.1499H18.9326V25.0043H18.7867V24.8588H18.6412V24.7131H18.4955V24.5674H17.6617V24.7131H17.5158V24.8588H17.37V25.0043H17.2245V25.2955H17.0786V25.441H16.9328V25.5867H16.7873V25.7324H16.6414V25.8779H12.7235V25.8776V25.8776ZM25.2568 25.8776V21.6731H28.2998V21.8474H28.7371V21.9937H28.8827V22.1394H29.0291V22.2849H29.175V22.5761H29.3205V22.937H29.175V23.2281H29.0291V23.5194H28.8827V24.3522H29.0291V24.4977H29.175V25.8776H28.5214V24.8587H28.3755V24.422H28.2013V24.2764H26.0848V25.8775H25.2568V25.8776V25.8776ZM30.125 25.8776V21.6731H33.4593V22.3547H30.9529V23.4495H33.3137V23.9854H30.9529V25.2256H33.4593V25.8776H30.125V25.8776ZM34.4096 25.8776V25.2256H36.6247V25.0799H36.9163V24.2765H36.7704V24.1307H35.4296V23.9853H34.8467V23.8102H34.7008V23.6645H34.5552V23.5192H34.4094V23.3735H34.2635V22.4303H34.4094V22.2846H34.5552V21.9935H34.8466V21.8472H35.1378V21.6729H37.5686V22.3544H35.2078V22.5H35.0621V23.3037H35.3829V23.4493H36.9859V23.5948H37.2772V23.7405H37.423V23.8862H37.5686V24.0317H37.7438V25.1498H37.5686V25.2955H37.423V25.441H37.2772V25.5867H37.1314V25.7324H36.5487V25.8779H34.4096V25.8776V25.8776ZM38.5483 25.8776V25.2256H40.9092V25.0799H41.0551V24.1307H39.5685V23.9853H39.1313V23.8102H38.8398V23.6645H38.6942V23.5192H38.5483V23.2279H38.4025V22.5759H38.5483V22.2847H38.6942V22.1392H38.8398V21.9935H38.9856V21.8472H39.2769V21.6729H41.7077V22.3544H39.3469V22.5H39.2012V23.3037H39.4926V23.4493H41.125V23.5948H41.5621V23.7405H41.7077V24.0316H41.8536V24.4976H42V24.713H41.8536V25.1497H41.7077V25.4408H41.4165V25.5865H41.2705V25.7322H40.6877V25.8776H38.5483V25.8776ZM19.8765 25.371H20.5351V22.2091H19.8765V22.3545H19.7306V22.5001H19.585V22.6458H19.4392V22.7913H19.2934V22.937H19.1478V23.0827H19.0019V23.3738H18.8561V24.1774H19.0019V24.3523H19.1478V24.6434H19.2934V24.7891H19.4392V24.9346H19.585V25.0802H19.7306V25.2259H19.8765V25.371V25.371ZM13.4054 25.2256H16.4258V25.0799H16.5715V24.9343H16.7173V24.7889H16.8632V24.6432H17.0087V24.4975H17.1544V24.1772H17.3003V24.0314H17.4459V23.3735H17.3003V23.2278H17.1544V23.0823H17.0087V22.9366H16.8632V22.7909H16.7173V22.6454H16.5715V22.4997H16.4258V22.3541H13.4054V23.449H15.7664V23.9848H13.4054V25.2256V25.2256ZM26.0848 23.5949H28.2014V23.4494H28.3756V22.5001H28.2014V22.3545H26.0848V23.5949ZM4.32938 18.2198V18.0039H4.47524V17.7126H4.62074V17.4216H4.7666V16.9848H4.91234V16.6643H5.05796V16.2275H5.20382V15.9364H5.34956V15.6453H5.49518V15.2087H5.64103V14.9174H5.78677V14.6263H5.9324V14.1603H6.07825V14.0146H7.34313V14.1603H7.48898V14.4806H7.63484V14.7719H7.78046V15.2086H7.9262V15.4996H8.07205V15.7907H8.21768V16.2274H8.39279V16.5187H8.53865V16.8097H8.68439V17.2757H8.8299V17.567H9.48878V14.0144H10.8995V14.1601H11.045V14.4804H11.1909V14.7717H11.3367V15.0627H11.4822V15.3538H11.6281V15.6451H11.7739V16.0818H11.9195V16.3728H12.0653V16.6639H12.8704V16.2271H13.0162V15.9361H13.1621V15.645H13.3076V15.2083H13.4535V14.917H13.6279V14.4804H13.7734V14.1601H13.9192V14.0144H15.3013V18.2196H14.6484V15.2785H13.9891V15.5696H13.8432V15.8607H13.6977V16.152H13.5518V16.618H13.406V16.9091H13.2605V17.2001H13.0861V17.4914H12.9402V17.9281H12.7942V18.2198H12.1411V18.0737H11.9954V17.7825H11.8499V17.4914H11.704V17.2001H11.5582V16.7635H11.4125V16.443H11.2667V16.152H11.0916V15.8607H10.9457V15.424H10.2871V18.22H8.29348V17.7826H8.14786V17.4915H8.00212V17.2002H5.41937V17.4915H5.27352V17.7826H5.12766V18.22H4.32938V18.2198V18.2198ZM16.4258 18.2198V14.0146H19.7307V14.6961H17.2244V15.7908H19.5852V16.4429H17.2244V17.5673H19.7307V18.2198H16.4258ZM20.681 18.2198V14.0146H23.724V14.1603H24.1612V14.3059H24.3068V14.4806H24.4527V14.6263H24.5984V14.9174H24.744V15.2785H24.5984V15.7152H24.4527V15.8606H24.3068V16.6643H24.4527V16.8098H24.5984V18.2197H23.9456V17.0545H23.7998V16.7632H23.6542V16.6179H21.5087V18.2197H20.681V18.2198V18.2198ZM25.694 18.2198V14.0146H26.3762V18.2198H25.694ZM28.8129 18.2198V18.0737H28.2014V17.9281H27.9099V17.7825H27.7643V17.6368H27.6185V17.3457H27.4721V17.0546H27.3264V16.2972H27.1806V15.9364H27.3264V15.2087H27.4721V14.9174H27.6185V14.772H27.7643V14.4807H28.0556V14.306H28.3755V14.1604H28.8127V14.0147H30.1947V14.6962H28.7371V14.8419H28.4455V14.9872H28.2998V15.1329H28.1541V15.5696H28.0082V16.81H28.1541V17.1306H28.2998V17.4217H28.5912V17.5674H29.8335V17.4217H29.9793V16.9849H30.125V16.6644H30.2707V16.3733H30.4166V15.9366H30.5622V15.6456H30.7366V15.3543H30.8825V14.9176H31.0289V14.6265H31.1745V14.3061H31.3204V14.0148H32.7016V14.4808H32.8768V14.7721H33.0225V15.0632H33.1683V15.4999H33.3141V15.7909H33.4597V16.0822H33.6055V16.5189H33.7514V16.81H33.897V17.1306H34.0429V17.5674H34.7015V14.0147H36.1124V14.306H36.258V14.4807H36.4038V14.772H36.5497V15.0631H36.6952V15.2088H36.8411V15.4999H36.9869V15.7909H37.1325V15.9365H37.2784V16.2276H37.4241V16.5189H37.5698V16.6644H38.258V14.0147H39.0565V18.22H37.7917V18.0738H37.6458V17.7826H37.4999V17.6369H37.3543V17.3458H37.2086V17.0548H37.0627V16.9091H36.9171V16.618H36.7712V16.2973H36.6254V16.152H36.4799V15.8607H36.3339V15.7153H36.1882V15.424H35.5295V18.22H33.6817V18.0738H33.5358V17.7826H33.39V17.4915H33.2445V17.2002H30.6618V17.4915H30.5155V17.9282H30.3697V18.22H28.8129V18.2198V18.2198ZM30.8469 16.6254H33.1424L32.012 14.4956L30.8469 16.6254ZM5.56119 16.5538H7.85592L6.72584 14.424L5.56119 16.5538V16.5538Z"/>
</mask>
<path fill-rule="evenodd" clip-rule="evenodd" d="M4 38V19.1598H5.89438V18.8401H6.06926V18.4034H6.21512V18.2571H7.23518V18.4034H7.38069V18.6945H7.52654V19.1598H11.0825V18.6945H11.3741V18.9856H11.5197V19.1598H13.2689V18.9856H13.4433V18.6945H13.7349V19.1598H22.4208V17.5293H22.8581V19.1598H27.4347V18.8401H27.7263V18.9856H28.1921V19.1598H31.1365V18.8401H31.2824V18.5488H31.4282V18.257H32.448V18.4033H32.5939V18.6944H32.7397V18.9854H32.8854V19.1597H36.587V18.5487H36.8786V18.84H37.0241V19.1597H40.1138V13.1033H37.1699V13.5401H36.8786V13.249H36.7328V13.1033H33.7892V13.5401H33.4976V13.249H33.352V13.1033H28.1923V13.249H27.7266V13.3947H27.435V13.1034H24.6364V13.2491H24.1993V13.1034H13.1236V13.2491H12.9778V13.5402H12.8319V13.9768H12.6864V14.2975H12.54V14.5886H12.2486V14.2975H12.1027V13.8315H11.9569V13.5402H11.8113V13.2491H11.6655V13.1034H8.57609V13.6858H8.25512V13.3947H8.10961V13.1034H5.31154V13.2491H5.16568V13.6858H5.01983V13.9768H4.87432V14.2975H4.72858V14.7342H4.58273V15.0252H4.4371V15.3165H4.29136V15.7532H4V0H41.8914V20.762H39.0934V20.9075H38.5104V20.762H34.8087V20.9075H34.3716V20.762H29.2129V20.9075H28.6293V20.762H24.3447V20.9075H23.9076V20.762H18.8944V20.9075H18.7489V21.0532H18.6031V21.1988H18.4572V21.3443H18.3117V21.49H17.845V21.3443H17.6994V21.1988H17.5536V20.9076H17.4078V20.7621H11.6654V26.8184H17.2621V26.6729H17.4078V26.5272H17.5536V26.3523H17.6994V26.2068H17.845V25.9155H18.3117V26.0612H18.4572V26.3523H18.6031V26.5272H18.7489V26.6729H18.8944V26.8184H22.421V25.3336H23.9076V25.1879H24.1991V26.8184H26.9968V25.1879H27.4347V26.8184H36.8784V26.6729H37.3155V26.5272H37.6069V26.8183H41.3085V26.6728H41.8915V38H4ZM21.363 23.7405H23.5082V23.5948H23.654V22.5H23.5082V22.3544H21.363V23.7405V23.7405ZM21.5086 15.9364H23.7997V15.6453H23.9455V14.9871H23.7997V14.6961H21.5086V15.9364ZM12.7235 25.8776V21.6731H16.7871V21.9937H16.9326V22.1394H17.0785V22.2849H17.2244V22.4306H17.3699V22.5762H17.5157V22.7217H17.6616V22.8674H17.8071V23.0131H18.4953V22.8674H18.6411V22.7217H18.7866V22.5762H18.9324V22.285H19.0783V22.1396H19.2239V21.9938H19.3697V21.8476H19.5155V21.6732H23.4326V21.8476H23.8698V21.9938H24.0157V22.1396H24.1615V22.285H24.3072V22.5762H24.453V23.5195H24.3072V23.8105H24.1615V23.9855H24.0157V24.1309H23.7243V24.2767H22.9662V24.4223H21.3635V25.8779H19.5156V25.7324H19.3698V25.5867H19.224V25.441H19.0784V25.1499H18.9326V25.0043H18.7867V24.8588H18.6412V24.7131H18.4955V24.5674H17.6617V24.7131H17.5158V24.8588H17.37V25.0043H17.2245V25.2955H17.0786V25.441H16.9328V25.5867H16.7873V25.7324H16.6414V25.8779H12.7235V25.8776V25.8776ZM25.2568 25.8776V21.6731H28.2998V21.8474H28.7371V21.9937H28.8827V22.1394H29.0291V22.2849H29.175V22.5761H29.3205V22.937H29.175V23.2281H29.0291V23.5194H28.8827V24.3522H29.0291V24.4977H29.175V25.8776H28.5214V24.8587H28.3755V24.422H28.2013V24.2764H26.0848V25.8775H25.2568V25.8776V25.8776ZM30.125 25.8776V21.6731H33.4593V22.3547H30.9529V23.4495H33.3137V23.9854H30.9529V25.2256H33.4593V25.8776H30.125V25.8776ZM34.4096 25.8776V25.2256H36.6247V25.0799H36.9163V24.2765H36.7704V24.1307H35.4296V23.9853H34.8467V23.8102H34.7008V23.6645H34.5552V23.5192H34.4094V23.3735H34.2635V22.4303H34.4094V22.2846H34.5552V21.9935H34.8466V21.8472H35.1378V21.6729H37.5686V22.3544H35.2078V22.5H35.0621V23.3037H35.3829V23.4493H36.9859V23.5948H37.2772V23.7405H37.423V23.8862H37.5686V24.0317H37.7438V25.1498H37.5686V25.2955H37.423V25.441H37.2772V25.5867H37.1314V25.7324H36.5487V25.8779H34.4096V25.8776V25.8776ZM38.5483 25.8776V25.2256H40.9092V25.0799H41.0551V24.1307H39.5685V23.9853H39.1313V23.8102H38.8398V23.6645H38.6942V23.5192H38.5483V23.2279H38.4025V22.5759H38.5483V22.2847H38.6942V22.1392H38.8398V21.9935H38.9856V21.8472H39.2769V21.6729H41.7077V22.3544H39.3469V22.5H39.2012V23.3037H39.4926V23.4493H41.125V23.5948H41.5621V23.7405H41.7077V24.0316H41.8536V24.4976H42V24.713H41.8536V25.1497H41.7077V25.4408H41.4165V25.5865H41.2705V25.7322H40.6877V25.8776H38.5483V25.8776ZM19.8765 25.371H20.5351V22.2091H19.8765V22.3545H19.7306V22.5001H19.585V22.6458H19.4392V22.7913H19.2934V22.937H19.1478V23.0827H19.0019V23.3738H18.8561V24.1774H19.0019V24.3523H19.1478V24.6434H19.2934V24.7891H19.4392V24.9346H19.585V25.0802H19.7306V25.2259H19.8765V25.371V25.371ZM13.4054 25.2256H16.4258V25.0799H16.5715V24.9343H16.7173V24.7889H16.8632V24.6432H17.0087V24.4975H17.1544V24.1772H17.3003V24.0314H17.4459V23.3735H17.3003V23.2278H17.1544V23.0823H17.0087V22.9366H16.8632V22.7909H16.7173V22.6454H16.5715V22.4997H16.4258V22.3541H13.4054V23.449H15.7664V23.9848H13.4054V25.2256V25.2256ZM26.0848 23.5949H28.2014V23.4494H28.3756V22.5001H28.2014V22.3545H26.0848V23.5949ZM4.32938 18.2198V18.0039H4.47524V17.7126H4.62074V17.4216H4.7666V16.9848H4.91234V16.6643H5.05796V16.2275H5.20382V15.9364H5.34956V15.6453H5.49518V15.2087H5.64103V14.9174H5.78677V14.6263H5.9324V14.1603H6.07825V14.0146H7.34313V14.1603H7.48898V14.4806H7.63484V14.7719H7.78046V15.2086H7.9262V15.4996H8.07205V15.7907H8.21768V16.2274H8.39279V16.5187H8.53865V16.8097H8.68439V17.2757H8.8299V17.567H9.48878V14.0144H10.8995V14.1601H11.045V14.4804H11.1909V14.7717H11.3367V15.0627H11.4822V15.3538H11.6281V15.6451H11.7739V16.0818H11.9195V16.3728H12.0653V16.6639H12.8704V16.2271H13.0162V15.9361H13.1621V15.645H13.3076V15.2083H13.4535V14.917H13.6279V14.4804H13.7734V14.1601H13.9192V14.0144H15.3013V18.2196H14.6484V15.2785H13.9891V15.5696H13.8432V15.8607H13.6977V16.152H13.5518V16.618H13.406V16.9091H13.2605V17.2001H13.0861V17.4914H12.9402V17.9281H12.7942V18.2198H12.1411V18.0737H11.9954V17.7825H11.8499V17.4914H11.704V17.2001H11.5582V16.7635H11.4125V16.443H11.2667V16.152H11.0916V15.8607H10.9457V15.424H10.2871V18.22H8.29348V17.7826H8.14786V17.4915H8.00212V17.2002H5.41937V17.4915H5.27352V17.7826H5.12766V18.22H4.32938V18.2198V18.2198ZM16.4258 18.2198V14.0146H19.7307V14.6961H17.2244V15.7908H19.5852V16.4429H17.2244V17.5673H19.7307V18.2198H16.4258ZM20.681 18.2198V14.0146H23.724V14.1603H24.1612V14.3059H24.3068V14.4806H24.4527V14.6263H24.5984V14.9174H24.744V15.2785H24.5984V15.7152H24.4527V15.8606H24.3068V16.6643H24.4527V16.8098H24.5984V18.2197H23.9456V17.0545H23.7998V16.7632H23.6542V16.6179H21.5087V18.2197H20.681V18.2198V18.2198ZM25.694 18.2198V14.0146H26.3762V18.2198H25.694ZM28.8129 18.2198V18.0737H28.2014V17.9281H27.9099V17.7825H27.7643V17.6368H27.6185V17.3457H27.4721V17.0546H27.3264V16.2972H27.1806V15.9364H27.3264V15.2087H27.4721V14.9174H27.6185V14.772H27.7643V14.4807H28.0556V14.306H28.3755V14.1604H28.8127V14.0147H30.1947V14.6962H28.7371V14.8419H28.4455V14.9872H28.2998V15.1329H28.1541V15.5696H28.0082V16.81H28.1541V17.1306H28.2998V17.4217H28.5912V17.5674H29.8335V17.4217H29.9793V16.9849H30.125V16.6644H30.2707V16.3733H30.4166V15.9366H30.5622V15.6456H30.7366V15.3543H30.8825V14.9176H31.0289V14.6265H31.1745V14.3061H31.3204V14.0148H32.7016V14.4808H32.8768V14.7721H33.0225V15.0632H33.1683V15.4999H33.3141V15.7909H33.4597V16.0822H33.6055V16.5189H33.7514V16.81H33.897V17.1306H34.0429V17.5674H34.7015V14.0147H36.1124V14.306H36.258V14.4807H36.4038V14.772H36.5497V15.0631H36.6952V15.2088H36.8411V15.4999H36.9869V15.7909H37.1325V15.9365H37.2784V16.2276H37.4241V16.5189H37.5698V16.6644H38.258V14.0147H39.0565V18.22H37.7917V18.0738H37.6458V17.7826H37.4999V17.6369H37.3543V17.3458H37.2086V17.0548H37.0627V16.9091H36.9171V16.618H36.7712V16.2973H36.6254V16.152H36.4799V15.8607H36.3339V15.7153H36.1882V15.424H35.5295V18.22H33.6817V18.0738H33.5358V17.7826H33.39V17.4915H33.2445V17.2002H30.6618V17.4915H30.5155V17.9282H30.3697V18.22H28.8129V18.2198V18.2198ZM30.8469 16.6254H33.1424L32.012 14.4956L30.8469 16.6254ZM5.56119 16.5538H7.85592L6.72584 14.424L5.56119 16.5538V16.5538Z" fill="#808080"/>
<path fill-rule="evenodd" clip-rule="evenodd" d="M4 38V19.1598H5.89438V18.8401H6.06926V18.4034H6.21512V18.2571H7.23518V18.4034H7.38069V18.6945H7.52654V19.1598H11.0825V18.6945H11.3741V18.9856H11.5197V19.1598H13.2689V18.9856H13.4433V18.6945H13.7349V19.1598H22.4208V17.5293H22.8581V19.1598H27.4347V18.8401H27.7263V18.9856H28.1921V19.1598H31.1365V18.8401H31.2824V18.5488H31.4282V18.257H32.448V18.4033H32.5939V18.6944H32.7397V18.9854H32.8854V19.1597H36.587V18.5487H36.8786V18.84H37.0241V19.1597H40.1138V13.1033H37.1699V13.5401H36.8786V13.249H36.7328V13.1033H33.7892V13.5401H33.4976V13.249H33.352V13.1033H28.1923V13.249H27.7266V13.3947H27.435V13.1034H24.6364V13.2491H24.1993V13.1034H13.1236V13.2491H12.9778V13.5402H12.8319V13.9768H12.6864V14.2975H12.54V14.5886H12.2486V14.2975H12.1027V13.8315H11.9569V13.5402H11.8113V13.2491H11.6655V13.1034H8.57609V13.6858H8.25512V13.3947H8.10961V13.1034H5.31154V13.2491H5.16568V13.6858H5.01983V13.9768H4.87432V14.2975H4.72858V14.7342H4.58273V15.0252H4.4371V15.3165H4.29136V15.7532H4V0H41.8914V20.762H39.0934V20.9075H38.5104V20.762H34.8087V20.9075H34.3716V20.762H29.2129V20.9075H28.6293V20.762H24.3447V20.9075H23.9076V20.762H18.8944V20.9075H18.7489V21.0532H18.6031V21.1988H18.4572V21.3443H18.3117V21.49H17.845V21.3443H17.6994V21.1988H17.5536V20.9076H17.4078V20.7621H11.6654V26.8184H17.2621V26.6729H17.4078V26.5272H17.5536V26.3523H17.6994V26.2068H17.845V25.9155H18.3117V26.0612H18.4572V26.3523H18.6031V26.5272H18.7489V26.6729H18.8944V26.8184H22.421V25.3336H23.9076V25.1879H24.1991V26.8184H26.9968V25.1879H27.4347V26.8184H36.8784V26.6729H37.3155V26.5272H37.6069V26.8183H41.3085V26.6728H41.8915V38H4ZM21.363 23.7405H23.5082V23.5948H23.654V22.5H23.5082V22.3544H21.363V23.7405V23.7405ZM21.5086 15.9364H23.7997V15.6453H23.9455V14.9871H23.7997V14.6961H21.5086V15.9364ZM12.7235 25.8776V21.6731H16.7871V21.9937H16.9326V22.1394H17.0785V22.2849H17.2244V22.4306H17.3699V22.5762H17.5157V22.7217H17.6616V22.8674H17.8071V23.0131H18.4953V22.8674H18.6411V22.7217H18.7866V22.5762H18.9324V22.285H19.0783V22.1396H19.2239V21.9938H19.3697V21.8476H19.5155V21.6732H23.4326V21.8476H23.8698V21.9938H24.0157V22.1396H24.1615V22.285H24.3072V22.5762H24.453V23.5195H24.3072V23.8105H24.1615V23.9855H24.0157V24.1309H23.7243V24.2767H22.9662V24.4223H21.3635V25.8779H19.5156V25.7324H19.3698V25.5867H19.224V25.441H19.0784V25.1499H18.9326V25.0043H18.7867V24.8588H18.6412V24.7131H18.4955V24.5674H17.6617V24.7131H17.5158V24.8588H17.37V25.0043H17.2245V25.2955H17.0786V25.441H16.9328V25.5867H16.7873V25.7324H16.6414V25.8779H12.7235V25.8776V25.8776ZM25.2568 25.8776V21.6731H28.2998V21.8474H28.7371V21.9937H28.8827V22.1394H29.0291V22.2849H29.175V22.5761H29.3205V22.937H29.175V23.2281H29.0291V23.5194H28.8827V24.3522H29.0291V24.4977H29.175V25.8776H28.5214V24.8587H28.3755V24.422H28.2013V24.2764H26.0848V25.8775H25.2568V25.8776V25.8776ZM30.125 25.8776V21.6731H33.4593V22.3547H30.9529V23.4495H33.3137V23.9854H30.9529V25.2256H33.4593V25.8776H30.125V25.8776ZM34.4096 25.8776V25.2256H36.6247V25.0799H36.9163V24.2765H36.7704V24.1307H35.4296V23.9853H34.8467V23.8102H34.7008V23.6645H34.5552V23.5192H34.4094V23.3735H34.2635V22.4303H34.4094V22.2846H34.5552V21.9935H34.8466V21.8472H35.1378V21.6729H37.5686V22.3544H35.2078V22.5H35.0621V23.3037H35.3829V23.4493H36.9859V23.5948H37.2772V23.7405H37.423V23.8862H37.5686V24.0317H37.7438V25.1498H37.5686V25.2955H37.423V25.441H37.2772V25.5867H37.1314V25.7324H36.5487V25.8779H34.4096V25.8776V25.8776ZM38.5483 25.8776V25.2256H40.9092V25.0799H41.0551V24.1307H39.5685V23.9853H39.1313V23.8102H38.8398V23.6645H38.6942V23.5192H38.5483V23.2279H38.4025V22.5759H38.5483V22.2847H38.6942V22.1392H38.8398V21.9935H38.9856V21.8472H39.2769V21.6729H41.7077V22.3544H39.3469V22.5H39.2012V23.3037H39.4926V23.4493H41.125V23.5948H41.5621V23.7405H41.7077V24.0316H41.8536V24.4976H42V24.713H41.8536V25.1497H41.7077V25.4408H41.4165V25.5865H41.2705V25.7322H40.6877V25.8776H38.5483V25.8776ZM19.8765 25.371H20.5351V22.2091H19.8765V22.3545H19.7306V22.5001H19.585V22.6458H19.4392V22.7913H19.2934V22.937H19.1478V23.0827H19.0019V23.3738H18.8561V24.1774H19.0019V24.3523H19.1478V24.6434H19.2934V24.7891H19.4392V24.9346H19.585V25.0802H19.7306V25.2259H19.8765V25.371V25.371ZM13.4054 25.2256H16.4258V25.0799H16.5715V24.9343H16.7173V24.7889H16.8632V24.6432H17.0087V24.4975H17.1544V24.1772H17.3003V24.0314H17.4459V23.3735H17.3003V23.2278H17.1544V23.0823H17.0087V22.9366H16.8632V22.7909H16.7173V22.6454H16.5715V22.4997H16.4258V22.3541H13.4054V23.449H15.7664V23.9848H13.4054V25.2256V25.2256ZM26.0848 23.5949H28.2014V23.4494H28.3756V22.5001H28.2014V22.3545H26.0848V23.5949ZM4.32938 18.2198V18.0039H4.47524V17.7126H4.62074V17.4216H4.7666V16.9848H4.91234V16.6643H5.05796V16.2275H5.20382V15.9364H5.34956V15.6453H5.49518V15.2087H5.64103V14.9174H5.78677V14.6263H5.9324V14.1603H6.07825V14.0146H7.34313V14.1603H7.48898V14.4806H7.63484V14.7719H7.78046V15.2086H7.9262V15.4996H8.07205V15.7907H8.21768V16.2274H8.39279V16.5187H8.53865V16.8097H8.68439V17.2757H8.8299V17.567H9.48878V14.0144H10.8995V14.1601H11.045V14.4804H11.1909V14.7717H11.3367V15.0627H11.4822V15.3538H11.6281V15.6451H11.7739V16.0818H11.9195V16.3728H12.0653V16.6639H12.8704V16.2271H13.0162V15.9361H13.1621V15.645H13.3076V15.2083H13.4535V14.917H13.6279V14.4804H13.7734V14.1601H13.9192V14.0144H15.3013V18.2196H14.6484V15.2785H13.9891V15.5696H13.8432V15.8607H13.6977V16.152H13.5518V16.618H13.406V16.9091H13.2605V17.2001H13.0861V17.4914H12.9402V17.9281H12.7942V18.2198H12.1411V18.0737H11.9954V17.7825H11.8499V17.4914H11.704V17.2001H11.5582V16.7635H11.4125V16.443H11.2667V16.152H11.0916V15.8607H10.9457V15.424H10.2871V18.22H8.29348V17.7826H8.14786V17.4915H8.00212V17.2002H5.41937V17.4915H5.27352V17.7826H5.12766V18.22H4.32938V18.2198V18.2198ZM16.4258 18.2198V14.0146H19.7307V14.6961H17.2244V15.7908H19.5852V16.4429H17.2244V17.5673H19.7307V18.2198H16.4258ZM20.681 18.2198V14.0146H23.724V14.1603H24.1612V14.3059H24.3068V14.4806H24.4527V14.6263H24.5984V14.9174H24.744V15.2785H24.5984V15.7152H24.4527V15.8606H24.3068V16.6643H24.4527V16.8098H24.5984V18.2197H23.9456V17.0545H23.7998V16.7632H23.6542V16.6179H21.5087V18.2197H20.681V18.2198V18.2198ZM25.694 18.2198V14.0146H26.3762V18.2198H25.694ZM28.8129 18.2198V18.0737H28.2014V17.9281H27.9099V17.7825H27.7643V17.6368H27.6185V17.3457H27.4721V17.0546H27.3264V16.2972H27.1806V15.9364H27.3264V15.2087H27.4721V14.9174H27.6185V14.772H27.7643V14.4807H28.0556V14.306H28.3755V14.1604H28.8127V14.0147H30.1947V14.6962H28.7371V14.8419H28.4455V14.9872H28.2998V15.1329H28.1541V15.5696H28.0082V16.81H28.1541V17.1306H28.2998V17.4217H28.5912V17.5674H29.8335V17.4217H29.9793V16.9849H30.125V16.6644H30.2707V16.3733H30.4166V15.9366H30.5622V15.6456H30.7366V15.3543H30.8825V14.9176H31.0289V14.6265H31.1745V14.3061H31.3204V14.0148H32.7016V14.4808H32.8768V14.7721H33.0225V15.0632H33.1683V15.4999H33.3141V15.7909H33.4597V16.0822H33.6055V16.5189H33.7514V16.81H33.897V17.1306H34.0429V17.5674H34.7015V14.0147H36.1124V14.306H36.258V14.4807H36.4038V14.772H36.5497V15.0631H36.6952V15.2088H36.8411V15.4999H36.9869V15.7909H37.1325V15.9365H37.2784V16.2276H37.4241V16.5189H37.5698V16.6644H38.258V14.0147H39.0565V18.22H37.7917V18.0738H37.6458V17.7826H37.4999V17.6369H37.3543V17.3458H37.2086V17.0548H37.0627V16.9091H36.9171V16.618H36.7712V16.2973H36.6254V16.152H36.4799V15.8607H36.3339V15.7153H36.1882V15.424H35.5295V18.22H33.6817V18.0738H33.5358V17.7826H33.39V17.4915H33.2445V17.2002H30.6618V17.4915H30.5155V17.9282H30.3697V18.22H28.8129V18.2198V18.2198ZM30.8469 16.6254H33.1424L32.012 14.4956L30.8469 16.6254ZM5.56119 16.5538H7.85592L6.72584 14.424L5.56119 16.5538V16.5538Z" stroke="white" stroke-width="2" mask="url(#path-1-inside-1_2103_245)"/>
</g>
<defs>
<filter id="filter0_d_2103_245" x="0" y="0" width="46" height="46" filterUnits="userSpaceOnUse" color-interpolation-filters="sRGB">
<feFlood flood-opacity="0" result="BackgroundImageFix"/>
<feColorMatrix in="SourceAlpha" type="matrix" values="0 0 0 0 0 0 0 0 0 0 0 0 0 0 0 0 0 0 127 0" result="hardAlpha"/>
<feOffset dy="4"/>
<feGaussianBlur stdDeviation="2"/>
<feComposite in2="hardAlpha" operator="out"/>
<feColorMatrix type="matrix" values="0 0 0 0 0 0 0 0 0 0 0 0 0 0 0 0 0 0 0.25 0"/>
<feBlend mode="normal" in2="BackgroundImageFix" result="effect1_dropShadow_2103_245"/>
<feBlend mode="normal" in="SourceGraphic" in2="effect1_dropShadow_2103_245" result="shape"/>
</filter>
</defs>
</svg>
